<?xml version="1.0" standalone="no"?>
<!DOCTYPE svg PUBLIC "-//W3C//DTD SVG 20010904//EN"
 "http://www.w3.org/TR/2001/REC-SVG-20010904/DTD/svg10.dtd">
<svg version="1.0" xmlns="http://www.w3.org/2000/svg"
 width="512.000000pt" height="512.000000pt" viewBox="0 0 512.000000 512.000000"
 preserveAspectRatio="xMidYMid meet">
<metadata>
Created by potrace 1.14, written by Peter Selinger 2001-2017
</metadata>
<g transform="translate(0.000000,512.000000) scale(0.100000,-0.100000)"
fill="#000000" stroke="none">
<path d="M1997 5100 c-42 -34 -42 -59 8 -231 25 -87 45 -162 45 -167 0 -5 -24
-12 -54 -15 -29 -3 -77 -17 -105 -31 -248 -126 -247 -479 3 -606 l66 -33 0
-527 0 -528 -87 -43 c-217 -107 -437 -294 -572 -484 -73 -104 -169 -295 -206
-409 -55 -172 -69 -266 -69 -476 -1 -228 13 -320 75 -505 174 -515 602 -897
1141 -1016 119 -26 399 -37 520 -20 661 95 1168 572 1309 1231 33 152 33 448
0 600 -57 269 -157 478 -330 692 -118 146 -334 314 -506 394 l-75 35 0 529 0
529 57 27 c220 104 263 395 83 557 -55 49 -139 87 -195 87 -19 0 -35 5 -35 10
0 6 20 82 45 169 50 172 50 197 8 231 -25 19 -42 20 -563 20 -521 0 -538 -1
-563 -20z m132 -648 c34 -114 5 -107 431 -107 426 0 395 -8 432 107 l23 70 61
-4 c107 -7 171 -78 162 -179 -7 -66 -39 -106 -112 -139 -70 -31 -122 -84 -131
-132 -3 -18 -5 -288 -3 -599 l3 -565 27 -41 c21 -32 46 -50 120 -86 122 -60
204 -113 308 -201 l85 -71 -200 -6 c-375 -12 -524 -46 -800 -184 -255 -127
-403 -170 -670 -196 -120 -12 -519 -8 -532 5 -10 10 31 90 95 186 71 105 241
278 346 349 43 30 131 81 195 115 105 55 118 65 139 106 l22 44 0 567 c0 376
-4 577 -11 596 -16 44 -68 91 -120 108 -119 40 -162 181 -81 269 37 39 77 55
139 56 l51 0 21 -68z m-609 -2687 c22 -23 23 -33 25 -227 1 -151 6 -223 19
-280 16 -71 16 -79 1 -108 -27 -52 -101 -63 -140 -20 -39 43 -70 296 -59 480
7 132 20 166 67 178 41 11 60 6 87 -23z m1818 -210 l2 -209 119 118 c95 95
123 117 142 114 53 -7 34 -38 -116 -188 l-145 -145 0 -105 0 -105 98 98 98 98
24 -26 c13 -14 29 -25 36 -25 24 0 23 -17 -11 -141 -18 -68 -32 -125 -31 -126
1 -2 43 21 92 50 l89 52 48 180 c26 99 52 190 57 203 11 25 47 30 56 8 5 -12
-27 -147 -71 -298 -12 -40 -12 -46 1 -41 19 7 18 1 -7 -58 -12 -28 -28 -49
-37 -49 -8 0 -55 -23 -105 -51 -97 -56 -97 -58 -10 -79 43 -11 50 -16 43 -29
-24 -42 -23 -42 -115 -17 l-90 24 -62 -35 c-35 -19 -63 -38 -63 -42 0 -4 28
-23 63 -44 l63 -36 49 14 c27 9 53 14 57 13 4 -2 -21 -34 -56 -73 -66 -72 -65
-72 -80 -21 -4 12 -117 86 -132 86 -2 0 -4 -35 -4 -78 0 -71 2 -81 25 -102 14
-13 25 -27 25 -31 0 -8 -101 -79 -113 -79 -4 0 -7 10 -7 22 0 19 -10 13 -62
-39 -72 -71 -124 -97 -172 -87 -17 3 -34 8 -37 10 -4 2 7 58 22 125 16 67 28
123 27 125 -2 1 -40 -18 -85 -44 -73 -42 -82 -51 -93 -87 -61 -213 -61 -213
-97 -217 -26 -3 -32 -1 -28 10 3 8 12 44 20 81 8 36 17 77 21 90 4 14 3 22 -2
19 -5 -3 -85 -49 -177 -102 -174 -101 -207 -111 -207 -61 0 20 25 38 159 114
87 51 166 97 176 105 15 11 -2 17 -125 50 -187 49 -190 50 -190 80 0 13 7 27
16 30 9 3 101 -16 204 -44 103 -27 193 -50 201 -50 8 0 51 22 97 48 l82 48
-126 35 -126 34 -2 56 -1 56 128 33 128 33 -83 48 c-46 27 -90 49 -98 49 -8 0
-99 -22 -202 -50 -103 -27 -194 -47 -202 -44 -9 3 -16 17 -16 30 0 30 5 32
191 81 126 33 139 38 123 50 -11 8 -90 55 -177 105 -146 83 -158 92 -155 117
2 17 10 27 23 28 11 2 97 -42 190 -96 94 -55 171 -98 173 -96 1 1 -16 69 -38
151 -45 166 -46 177 -26 193 34 29 49 -1 104 -206 29 -109 56 -199 60 -201 4
-1 41 -22 82 -47 41 -24 76 -41 78 -36 2 5 -11 57 -28 117 -16 60 -30 114 -30
120 0 7 12 15 28 19 15 3 35 14 45 23 17 15 24 10 112 -78 l95 -95 0 105 0
105 -145 145 c-150 150 -169 181 -116 188 19 3 47 -20 142 -114 l119 -119 0
206 c0 113 3 209 7 213 4 4 19 6 33 4 l25 -3 3 -210z m-1578 -630 c17 -9 30
-19 30 -24 0 -5 38 -50 85 -100 87 -93 98 -117 74 -163 -16 -30 -72 -50 -106
-37 -36 13 -113 88 -169 163 -53 71 -57 105 -15 147 33 33 58 36 101 14z"/>
<path d="M3101 1025 c16 -61 32 -121 35 -135 4 -18 25 -36 70 -62 l64 -36 0
71 0 72 -100 100 -100 99 31 -109z"/>
<path d="M3437 1032 l-97 -97 0 -72 0 -71 67 36 66 37 19 75 c11 41 25 99 33
129 8 30 13 56 12 58 -2 1 -47 -41 -100 -95z"/>
<path d="M2963 766 c-62 -17 -113 -33 -113 -36 0 -3 58 -21 129 -39 l128 -33
62 33 c33 19 61 36 61 39 0 10 -119 70 -137 69 -10 -1 -69 -16 -130 -33z"/>
<path d="M3203 631 c-58 -34 -62 -39 -77 -91 -8 -30 -26 -95 -40 -145 l-26
-90 105 106 106 105 -3 75 -3 75 -62 -35z"/>
</g>
</svg>
